{"title":"Peaceful.Warrior.2006.DVDrip.x264.AC3.RoSubbed-playSD","uid":12481817,"size":816465928,"categoryP":"video","categoryS":"movies","magnet":"?xt=urn:btih:4e739e2ee03f93b392c04a8579dc65ce3c77aff6&amp;dn=Peaceful.Warrior.2006.DVDrip.x264.AC3.RoSubbed-playSD&amp;tr=udp%3A%2F%2Ftracker.leechers-paradise.org%3A6969&amp;tr=udp%3A%2F%2Fzer0day.ch%3A1337&amp;tr=udp%3A%2F%2Fopen.demonii.com%3A1337&amp;tr=udp%3A%2F%2Ftracker.coppersurfer.tk%3A6969&amp;tr=udp%3A%2F%2Fexodus.desync.com%3A6969","seeders":0,"leechers":1,"uploader":"TvTeam","files":5,"time":1443059592,"description":"------------------------------------------------------------------------\r\n\r  https://www.torrenting.com\r\n\r\nSign up is OPEN - for time being. Come and have fun.\r\n\r\n------------------------------------------------------------------------General\r\nUnique ID                                : 182534495763056485891538499373828371596 (0x8952DD78FCBF1948BA854B2A9EFB748C)\r\nComplete name                            : F:UploadPeaceful.Warrior.2006.DVDrip.x264.AC3.RoSubbed-playSDPeaceful.Warrior.2006.DVDrip.x264.AC3.RoSubbed-playSD.mkv\r\nFormat                                   : Matroska\r\nFormat version                           : Version 4 / Version 2\r\nFile size                                : 772 MiB\r\nDuration                                 : 2h 0mn\r\nOverall bit rate                         : 894 Kbps\r\nEncoded date                             : UTC 2015-09-14 15:48:47\r\nWriting application                      : mkvmerge v8.2.0 ('World of Adventure') 64bit\r\nWriting library                          : libebml v1.3.1 + libmatroska v1.4.2\r\nDURATION                                 : 02:00:42.048000000\r\nNUMBER_OF_FRAMES                         : 226314\r\nNUMBER_OF_BYTES                          : 347618304\r\n_STATISTICS_WRITING_APP                  : mkvmerge v8.2.0 ('World of Adventure') 64bit\r\n_STATISTICS_WRITING_DATE_UTC             : 2015-09-14 15:48:47\r\n_STATISTICS_TAGS                         : BPS DURATION NUMBER_OF_FRAMES NUMBER_OF_BYTES\r\n\r\nVideo\r\nID                                       : 1\r\nFormat                                   : AVC\r\nFormat/Info                              : Advanced Video Codec\r\nFormat profile                           :   \r\nFormat settings, CABAC                   : Yes\r\nFormat settings, ReFrames                : 4 frames\r\nCodec ID                                 : V_MPEG4/ISO/AVC\r\nDuration                                 : 2h 0mn\r\nBit rate                                 : 492 Kbps\r\nWidth                                    : 720 pixels\r\nHeight                                   : 306 pixels\r\nDisplay aspect ratio                     : 2.35:1\r\nFrame rate mode                          : Constant\r\nFrame rate                               : 25.000 fps\r\nColor space                              : YUV\r\nChroma subsampling                       : 4:2:0\r\nBit depth                                : 8 bits\r\nScan type                                : Progressive\r\nBits/(Pixel*Frame)                       : 0.089\r\nStream size                              : 425 MiB (55%)\r\nWriting library                          : x264 core 125 r2200 999b753\r\nEncoding settings                        : cabac=1 / ref=5 / deblock=1:-3:-3 / analyse=0x3:0x113 / me=umh / subme=8 / psy=1 / psy_rd=0.00:0.00 / mixed_ref=1 / me_range=16 / chroma_me=1 / trellis=2 / 8x8dct=1 / cqm=0 / deadzone=21,11 / fast_pskip=1 / chroma_qp_offset=0 / threads=6 / lookahead_threads=1 / sliced_threads=0 / nr=0 / decimate=1 / interlaced=0 / bluray_compat=0 / constrained_intra=0 / bframes=5 / b_pyramid=1 / b_adapt=2 / b_bias=0 / direct=3 / weightb=1 / open_gop=0 / weightp=2 / keyint=250 / keyint_min=25 / scenecut=40 / intra_refresh=0 / rc_lookahead=50 / rc=crf / mbtree=1 / crf=19.0 / qcomp=0.60 / qpmin=0 / qpmax=69 / qpstep=4 / ip_ratio=1.40 / aq=1:1.00\r\nDefault                                  : Yes\r\nForced                                   : No\r\n\r\nAudio\r\nID                                       : 2\r\nFormat                                   : AC-3\r\nFormat/Info                              : Audio Coding 3\r\nMode extension                           : CM (complete main)\r\nFormat settings, Endianness              : Big\r\nCodec ID                                 : A_AC3\r\nDuration                                 : 2h 0mn\r\nBit rate mode                            : Constant\r\nBit rate                                 : 384 Kbps\r\nChannel(s)                               : 6 channels\r\nChannel positions                        : Front: L C R, Side: L R, LFE\r\nSampling rate                            : 48.0 KHz\r\nCompression mode                         : Lossy\r\nStream size                              : 332 MiB (43%)\r\nDefault                                  : Yes\r\nForced                                   : No","torrent":{"xt":"urn:btih:4e739e2ee03f93b392c04a8579dc65ce3c77aff6","amp;dn":"Peaceful.Warrior.2006.DVDrip.x264.AC3.RoSubbed-playSD","amp;tr":["udp%3A%2F%2Ftracker.leechers-paradise.org%3A6969","udp%3A%2F%2Fzer0day.ch%3A1337","udp%3A%2F%2Fopen.demonii.com%3A1337","udp%3A%2F%2Ftracker.coppersurfer.tk%3A6969","udp%3A%2F%2Fexodus.desync.com%3A6969"],"infoHash":"4e739e2ee03f93b392c04a8579dc65ce3c77aff6","infoHashBuffer":{"type":"Buffer","data":[78,115,158,46,224,63,147,179,146,192,74,133,121,220,101,206,60,119,175,246]},"announce":[],"urlList":[]}}